<?xml version="1.0" encoding="UTF-8"?>
<svg width="258px" height="49px" viewBox="0 0 258 49" version="1.1" xmlns="http://www.w3.org/2000/svg" xmlns:xlink="http://www.w3.org/1999/xlink">
    <!-- Generator: Sketch 52.6 (67491) - http://www.bohemiancoding.com/sketch -->
    <title>Group</title>
    <desc>Created with Sketch.</desc>
    <defs>
        <path d="M150.043945,46.2792969 L157.485352,5.52734375 L162.817383,5.52734375 L173.71582,31.71875 L185.112305,5.52734375 L190.473633,5.52734375 L197.124023,46.2792969 L189.272461,46.2792969 L185.698242,21.640625 L174.682617,46.8066406 L172.543945,46.8066406 L161.90918,21.640625 L157.866211,46.2792969 L150.043945,46.2792969 Z M208.749023,20.2929688 L208.749023,46.2792969 L201.483398,46.2792969 L201.483398,20.2929688 L208.749023,20.2929688 Z M205.174805,5 C206.346686,5 207.352535,5.4296832 208.192383,6.2890625 C209.051762,7.12891045 209.481445,8.15429082 209.481445,9.36523438 C209.481445,10.5566466 209.051762,11.582027 208.192383,12.4414062 C207.352535,13.3007855 206.327154,13.7304688 205.116211,13.7304688 C203.905267,13.7304688 202.879887,13.3007855 202.040039,12.4414062 C201.18066,11.582027 200.750977,10.5566466 200.750977,9.36523438 C200.750977,8.15429082 201.18066,7.12891045 202.040039,6.2890625 C202.899418,5.4296832 203.94433,5 205.174805,5 Z M214.104492,20.2929688 L221.370117,20.2929688 L221.370117,23.515625 C222.366216,22.2460874 223.333003,21.3378934 224.270508,20.7910156 C225.793953,19.8925736 227.551748,19.4433594 229.543945,19.4433594 C232.747086,19.4433594 235.266592,20.4882708 237.102539,22.578125 C238.059575,23.6914118 238.655272,24.9511648 238.889648,26.3574219 C239.065431,27.3535206 239.15332,28.4960873 239.15332,29.7851562 L239.15332,46.2792969 L231.887695,46.2792969 L231.887695,31.8945312 C231.887695,29.9023338 231.653323,28.4960979 231.18457,27.6757812 C230.403316,26.3085869 228.977549,25.625 226.907227,25.625 C224.817372,25.625 223.29395,26.4062422 222.336914,27.96875 C221.69238,29.0429741 221.370117,30.6640517 221.370117,32.8320312 L221.370117,46.2792969 L214.104492,46.2792969 L214.104492,20.2929688 Z M251.891602,26.5625 L251.891602,46.2792969 L244.625977,46.2792969 L244.625977,26.5625 L241.754883,26.5625 L241.754883,20.2929688 L244.625977,20.2929688 L244.625977,11.4453125 L251.891602,11.4453125 L251.891602,20.2929688 L257.047852,20.2929688 L257.047852,26.5625 L251.891602,26.5625 Z" id="path-1"></path>
        <filter x="-1.4%" y="-3.6%" width="102.8%" height="107.2%" filterUnits="objectBoundingBox" id="filter-2">
            <feOffset dx="0" dy="0" in="SourceAlpha" result="shadowOffsetOuter1"></feOffset>
            <feGaussianBlur stdDeviation="0.5" in="shadowOffsetOuter1" result="shadowBlurOuter1"></feGaussianBlur>
            <feColorMatrix values="0 0 0 0 0.529411765   0 0 0 0 0.894117647   0 0 0 0 0.858823529  0 0 0 0.5 0" type="matrix" in="shadowBlurOuter1"></feColorMatrix>
        </filter>
        <path d="M0.940429688,46 L0.940429688,6.00976562 L10.8427734,6.00976562 C15.3740461,6.00976562 18.6454978,6.81053887 20.6572266,8.41210938 C21.9072328,9.40820811 22.854489,10.7851475 23.4990234,12.5429688 C23.9873071,13.851569 24.2314453,15.2089773 24.2314453,16.6152344 C24.2314453,18.8808707 23.7236379,20.755852 22.7080078,22.2402344 C22.1611301,23.0410196 21.2138739,23.8417929 19.8662109,24.6425781 C22.1904413,25.1503932 23.9189396,25.980463 25.0517578,27.1328125 C26.9658299,29.0664159 27.9228516,31.585922 27.9228516,34.6914062 C27.9228516,38.050798 26.7412228,40.7851457 24.3779297,42.8945312 C22.0732307,44.9648541 18.7529514,46 14.4169922,46 L0.940429688,46 Z M8.73339844,22.6796875 L10.9599609,22.6796875 C12.9521584,22.6796875 14.4609324,22.2451215 15.4863281,21.3759766 C16.5117239,20.5068316 17.0244141,19.2128992 17.0244141,17.4941406 C17.0244141,15.7949134 16.5214894,14.5107465 15.515625,13.6416016 C14.5097606,12.7724566 13.0205177,12.3378906 11.0478516,12.3378906 L8.73339844,12.3378906 L8.73339844,22.6796875 Z M8.73339844,39.671875 L12.0732422,39.671875 C14.5146606,39.671875 16.3408143,39.320316 17.5517578,38.6171875 C19.1142656,37.6992142 19.8955078,36.2050885 19.8955078,34.1347656 C19.8955078,32.1816309 19.1240312,30.7070362 17.5810547,29.7109375 C16.7216754,29.1640598 15.7841848,28.8417974 14.7685547,28.7441406 C13.889644,28.6464839 12.8544981,28.5976562 11.6630859,28.5976562 L8.73339844,28.5976562 L8.73339844,39.671875 Z M39.7822266,20.0136719 L39.7822266,34.7207031 C39.7822266,36.400399 40.0751924,37.6796831 40.6611328,38.5585938 C41.6181688,39.9453194 43.0829979,40.6386719 45.0556641,40.6386719 C46.8134854,40.6386719 48.1367143,40.14063 49.0253906,39.1445312 C49.9140669,38.1484325 50.3583984,36.6738379 50.3583984,34.7207031 L50.3583984,20.0136719 L57.6240234,20.0136719 L57.6240234,35.9511719 C57.6240234,39.2519696 56.6962983,41.7910067 54.8408203,43.5683594 C52.5556526,45.7558703 49.303732,46.8496094 45.0849609,46.8496094 C40.8466585,46.8496094 37.5849724,45.7558703 35.2998047,43.5683594 C33.4443267,41.7714754 32.5166016,39.2324383 32.5166016,35.9511719 L32.5166016,20.0136719 L39.7822266,20.0136719 Z M70.5966797,26.2832031 L70.5966797,46 L63.3310547,46 L63.3310547,26.2832031 L60.5185547,26.2832031 L60.5185547,20.0136719 L63.3310547,20.0136719 L63.3310547,11.6933594 C63.3310547,9.64256787 63.5263652,8.05078691 63.9169922,6.91796875 C64.6396521,4.8476459 65.9775293,3.19727178 67.9306641,1.96679687 C69.61036,0.892572754 71.4462791,0.35546875 73.4384766,0.35546875 C74.6494201,0.35546875 75.9287042,0.64843457 77.2763672,1.234375 L77.2763672,7.88476562 C75.8896415,7.24023115 74.7666059,6.91796875 73.9072266,6.91796875 C73.3212861,6.91796875 72.7646511,7.08886548 72.2373047,7.43066406 C71.7099583,7.77246265 71.3388683,8.20702861 71.1240234,8.734375 C70.7724592,9.5546916 70.5966797,10.8925688 70.5966797,12.7480469 L70.5966797,20.0136719 L77.2763672,20.0136719 L77.2763672,26.2832031 L70.5966797,26.2832031 Z" id="path-3"></path>
        <filter x="-2.0%" y="-3.2%" width="103.9%" height="106.5%" filterUnits="objectBoundingBox" id="filter-4">
            <feOffset dx="0" dy="0" in="SourceAlpha" result="shadowOffsetOuter1"></feOffset>
            <feGaussianBlur stdDeviation="0.5" in="shadowOffsetOuter1" result="shadowBlurOuter1"></feGaussianBlur>
            <feColorMatrix values="0 0 0 0 0.529411765   0 0 0 0 0.894117647   0 0 0 0 0.858823529  0 0 0 0.5 0" type="matrix" in="shadowBlurOuter1"></feColorMatrix>
        </filter>
        <path d="M90.4335938,26.2832031 L90.4335938,46 L83.1679688,46 L83.1679688,26.2832031 L80.3554688,26.2832031 L80.3554688,20.0136719 L83.1679688,20.0136719 L83.1679688,11.6933594 C83.1679688,9.64256787 83.3632793,8.05078691 83.7539062,6.91796875 C84.4765661,4.8476459 85.8144434,3.19727178 87.7675781,1.96679687 C89.447274,0.892572754 91.2831932,0.35546875 93.2753906,0.35546875 C94.4863342,0.35546875 95.7656183,0.64843457 97.1132812,1.234375 L97.1132812,7.88476562 C95.7265556,7.24023115 94.6035199,6.91796875 93.7441406,6.91796875 C93.1582002,6.91796875 92.6015651,7.08886548 92.0742188,7.43066406 C91.5468724,7.77246265 91.1757823,8.20702861 90.9609375,8.734375 C90.6093732,9.5546916 90.4335938,10.8925688 90.4335938,12.7480469 L90.4335938,20.0136719 L97.1132812,20.0136719 L97.1132812,26.2832031 L90.4335938,26.2832031 Z M124.880859,34.1933594 L105.398438,34.1933594 C105.476563,36.4004017 106.042963,38.0996034 107.097656,39.2910156 C108.230474,40.5410219 109.792959,41.1660156 111.785156,41.1660156 C113.28907,41.1660156 114.587885,40.8046911 115.681641,40.0820312 C116.443363,39.5937476 117.195309,38.7929743 117.9375,37.6796875 L124.675781,38.7636719 C123.93359,40.5214932 123.025396,41.9472602 121.951172,43.0410156 C119.412097,45.5800908 116.072286,46.8496094 111.931641,46.8496094 C109.646473,46.8496094 107.542002,46.4394572 105.618164,45.6191406 C103.694326,44.798824 102.117194,43.6367263 100.886719,42.1328125 C98.933584,39.7695194 97.9570312,36.8007991 97.9570312,33.2265625 C97.9570312,30.9413948 98.3427696,28.8369237 99.1142578,26.9130859 C99.885746,24.9892482 100.964837,23.4316466 102.351562,22.2402344 C104.734387,20.1894429 107.800763,19.1640625 111.550781,19.1640625 C113.914074,19.1640625 116.052725,19.6132768 117.966797,20.5117188 C119.880869,21.4101607 121.38476,22.6796793 122.478516,24.3203125 C124.080086,26.6836056 124.880859,29.6718569 124.880859,33.2851562 L124.880859,34.1933594 Z M117.9375,29.5644531 C117.64453,28.2558528 117.18555,27.2304725 116.560547,26.4882812 C115.369135,25.0624929 113.757823,24.3496094 111.726562,24.3496094 C109.714834,24.3496094 108.113287,25.1113205 106.921875,26.6347656 C106.316403,27.3964882 105.896486,28.3730409 105.662109,29.5644531 L117.9375,29.5644531 Z M128.947266,20.0136719 L136.212891,20.0136719 L136.212891,23.9394531 C138.009775,20.7558435 140.529281,19.1640625 143.771484,19.1640625 C144.748052,19.1640625 145.812494,19.3789041 146.964844,19.8085938 L145.910156,26.6347656 C144.816401,26.0292938 143.654303,25.7265625 142.423828,25.7265625 C140.451162,25.7265625 138.92774,26.3515563 137.853516,27.6015625 C137.169918,28.3632851 136.73047,29.1835894 136.535156,30.0625 C136.320311,31.0585987 136.212891,32.210931 136.212891,33.5195312 L136.212891,46 L128.947266,46 L128.947266,20.0136719 Z" id="path-5"></path>
        <filter x="-2.3%" y="-3.2%" width="104.5%" height="106.5%" filterUnits="objectBoundingBox" id="filter-6">
            <feOffset dx="0" dy="0" in="SourceAlpha" result="shadowOffsetOuter1"></feOffset>
            <feGaussianBlur stdDeviation="0.5" in="shadowOffsetOuter1" result="shadowBlurOuter1"></feGaussianBlur>
            <feColorMatrix values="0 0 0 0 0.529411765   0 0 0 0 0.894117647   0 0 0 0 0.858823529  0 0 0 0.5 0" type="matrix" in="shadowBlurOuter1"></feColorMatrix>
        </filter>
    </defs>
    <g id="Page-1" stroke="none" stroke-width="1" fill="none" fill-rule="evenodd">
        <g id="Group" transform="translate(0.000000, 1.000000)">
            <g id="Mint">
                <use fill="black" fill-opacity="1" filter="url(#filter-2)" xlink:href="#path-1"></use>
                <use fill="#9393B1" fill-rule="evenodd" xlink:href="#path-1"></use>
                <use fill-opacity="0.99" fill="#00ACB1" fill-rule="evenodd" xlink:href="#path-1"></use>
            </g>
            <g id="fer">
                <use fill="black" fill-opacity="1" filter="url(#filter-4)" xlink:href="#path-3"></use>
                <use fill="#4A536B" fill-rule="evenodd" xlink:href="#path-3"></use>
                <use fill="#015D67" fill-rule="evenodd" xlink:href="#path-3"></use>
            </g>
            <g id="Buf">
                <use fill="black" fill-opacity="1" filter="url(#filter-6)" xlink:href="#path-5"></use>
                <use fill="#565D77" fill-rule="evenodd" xlink:href="#path-5"></use>
                <use fill="#015D67" fill-rule="evenodd" xlink:href="#path-5"></use>
            </g>
        </g>
    </g>
</svg>